<svg
  width="97"
  height="84"
  viewBox="0 0 97 84"
  fill="none"
  xmlns="http://www.w3.org/2000/svg"
>
  <path
    d="M0 6C0 2.68629 2.68629 0 6 0H91C94.3137 0 97 2.68629 97 6V78C97 81.3137 94.3137 84 91 84H6C2.68629 84 0 81.3137 0 78V6Z"
    fill="#CACACA"
  />
  <ellipse cx="21.5" cy="15.5" rx="10" ry="9.5" fill="#D9D9D9" />
  <path
    d="M6 84H91C94.3137 84 97 81.3137 97 78V48.3361L81 29.0652C77.9239 25.7499 76.6411 24.9347 75 25.0082C72.8932 24.8885 71.3972 26.0645 68.5 29.0652L46.5 56.4501C44.8172 58.0119 43.5644 58.3756 41 58.4786C39.6982 58.4121 38.5577 57.917 36 56.4501L23.5 48.3361C21.2551 46.6699 20.1918 46.1875 18.5 45.8004C17.2411 45.5419 15.9912 46.3764 13.5 48.3361L0 60V78C0 81.3137 2.68629 84 6 84Z"
    fill="#ACACAC"
  />
</svg>